<svg width="41" height="41" viewBox="0 0 41 41" fill="none" xmlns="http://www.w3.org/2000/svg">
<g clip-path="url(#clip0_97_79)">
<path d="M29.6258 21.7839C31.3989 19.9846 32.6006 17.7014 33.0798 15.2212C33.5591 12.741 33.2944 10.1744 32.3192 7.84416C31.344 5.5139 29.7017 3.52392 27.5988 2.12433C25.4958 0.724749 23.0261 -0.0219727 20.5 -0.0219727C17.9739 -0.0219727 15.5042 0.724749 13.4012 2.12433C11.2983 3.52392 9.65601 5.5139 8.68079 7.84416C7.70558 10.1744 7.44095 12.741 7.92018 15.2212C8.3994 17.7014 9.6011 19.9846 11.3742 21.7839C8.02726 23.0996 5.1531 25.391 3.12482 28.3607C1.09655 31.3305 0.00783379 34.8413 4.11928e-07 38.4376C-0.000190471 38.7742 0.0659603 39.1075 0.19467 39.4184C0.32338 39.7294 0.512125 40.012 0.750114 40.25C0.988102 40.488 1.27067 40.6767 1.58165 40.8054C1.89263 40.9341 2.22593 41.0003 2.5625 41.0001H38.4375C38.7741 41.0003 39.1074 40.9341 39.4184 40.8054C39.7293 40.6767 40.0119 40.488 40.2499 40.25C40.4879 40.012 40.6766 39.7294 40.8053 39.4184C40.934 39.1075 41.0002 38.7742 41 38.4376C40.9922 34.8413 39.9035 31.3305 37.8752 28.3607C35.8469 25.391 32.9727 23.0996 29.6258 21.7839ZM20.5 5.1251C22.0204 5.1251 23.5067 5.57596 24.7709 6.42067C26.0351 7.26539 27.0205 8.46601 27.6023 9.87072C28.1842 11.2754 28.3364 12.8211 28.0398 14.3124C27.7432 15.8036 27.011 17.1734 25.9359 18.2485C24.8608 19.3236 23.491 20.0558 21.9998 20.3524C20.5085 20.649 18.9628 20.4968 17.5581 19.9149C16.1534 19.3331 14.9528 18.3477 14.1081 17.0835C13.2634 15.8193 12.8125 14.333 12.8125 12.8126C12.8148 10.7744 13.6254 8.82041 15.0666 7.37921C16.5078 5.93801 18.4618 5.12736 20.5 5.1251ZM5.38027 35.8751C5.97567 32.9832 7.54958 30.3849 9.83685 28.5179C12.1241 26.6509 14.985 25.6293 17.9375 25.6251H23.0625C26.015 25.6293 28.8759 26.6509 31.1632 28.5179C33.4504 30.3849 35.0243 32.9832 35.6197 35.8751H5.38027Z" fill="white"/>
</g>
<defs>
<clipPath id="clip0_97_79">
<rect width="41" height="41" fill="white"/>
</clipPath>
</defs>
</svg>
