<svg width="63" height="63" viewBox="0 0 63 63" fill="none" xmlns="http://www.w3.org/2000/svg">
<path d="M54.1406 20.6719V10.8281H50.2031V0.984375H4.92188V57.0938C4.92188 59.8077 7.12983 62.0156 9.84375 62.0156H53.1562C55.8702 62.0156 58.0781 59.8077 58.0781 57.0938V20.6719H54.1406ZM9.84375 60.0469C8.21559 60.0469 6.89062 58.7219 6.89062 57.0938V2.95312H48.2344V57.0938C48.2344 58.2012 48.6015 59.2239 49.2207 60.0469H9.84375ZM56.1094 57.0938C56.1094 58.7219 54.7844 60.0469 53.1562 60.0469C51.5281 60.0469 50.2031 58.7219 50.2031 57.0938V12.7969H52.1719V54.1406H54.1406V22.6406H56.1094V57.0938Z" fill="white"/>
<path d="M54.1406 56.1094H52.1719V58.0781H54.1406V56.1094Z" fill="white"/>
<path d="M38.7578 46.4714L35.4375 45.5234V45.2606C36.664 44.3363 37.4062 42.8823 37.4062 41.3438V39.5443C37.4062 36.9397 35.4552 34.714 32.9638 34.4768C31.5847 34.3409 30.1977 34.8016 29.1739 35.7318C28.1502 36.6631 27.5625 37.991 27.5625 39.375V41.3438C27.5625 42.8823 28.3047 44.3363 29.5312 45.2606V45.5234L26.21 46.4714C24.1083 47.0728 22.6406 49.0189 22.6406 51.2052V54.1406H42.3281V51.2052C42.3281 49.0189 40.8604 47.0728 38.7578 46.4714ZM40.3594 52.1719H24.6094V51.2052C24.6094 49.894 25.4904 48.7256 26.7514 48.3653L31.5 47.0079V44.1689L31.0108 43.8844C30.0845 43.345 29.5312 42.3951 29.5312 41.3438V39.375C29.5312 38.5442 29.8837 37.7478 30.4979 37.1887C31.121 36.6217 31.9233 36.3589 32.7767 36.4347C34.269 36.5774 35.4375 37.9437 35.4375 39.5443V41.3438C35.4375 42.3951 34.8843 43.345 33.958 43.8844L33.4688 44.1689V47.0079L38.2164 48.3653C39.4784 48.7256 40.3594 49.894 40.3594 51.2052V52.1719Z" fill="white"/>
<path d="M18.7031 58.0781H46.2656V30.5156H18.7031V58.0781ZM20.6719 32.4844H44.2969V56.1094H20.6719V32.4844Z" fill="white"/>
<path d="M20.6719 28.5469C27.1855 28.5469 32.4844 23.248 32.4844 16.7344C32.4844 10.2208 27.1855 4.92188 20.6719 4.92188C14.1583 4.92188 8.85938 10.2208 8.85938 16.7344C8.85938 23.248 14.1583 28.5469 20.6719 28.5469ZM20.6719 26.5781C16.6576 26.5781 13.2024 24.1585 11.6717 20.7044C12.8579 20.7851 13.9673 21.2645 14.8158 22.113L15.0196 22.3168C15.8622 23.1604 16.9834 23.625 18.1765 23.625C20.6384 23.625 22.6406 21.6228 22.6406 19.1609V18.2109C22.6406 16.3111 21.0952 14.7656 19.1953 14.7656C18.3812 14.7656 17.7188 14.1031 17.7188 13.2891V11.8125C17.7188 10.3999 17.263 9.00802 16.4509 7.85531C17.4687 7.36903 18.5781 7.04714 19.7515 6.93787C19.7239 7.16034 19.6875 7.3838 19.6875 7.60725C19.6875 9.32991 20.4583 10.9354 21.8039 12.0113L23.4813 13.3521C24.1979 13.925 24.6094 14.7814 24.6094 15.6978C24.6094 18.4403 26.841 20.6719 29.5834 20.6719C29.6189 20.6719 29.6563 20.665 29.6917 20.664C28.1708 24.1408 24.7019 26.5781 20.6719 26.5781ZM30.5156 16.7344C30.5156 17.385 30.4487 18.021 30.3276 18.6372C30.0776 18.6765 29.8285 18.7031 29.5834 18.7031C27.9257 18.7031 26.5781 17.3555 26.5781 15.6978C26.5781 14.1799 25.8989 12.7644 24.7118 11.8145L23.0344 10.4728C22.1583 9.77287 21.6562 8.72747 21.6562 7.60725C21.6562 7.38872 21.6779 7.1692 21.7212 6.9487C26.6569 7.47436 30.5156 11.6609 30.5156 16.7344ZM14.7735 8.87217C15.4025 9.71578 15.75 10.7592 15.75 11.8125V13.2891C15.75 15.1889 17.2955 16.7344 19.1953 16.7344C20.0094 16.7344 20.6719 17.3969 20.6719 18.2109V19.1609C20.6719 20.536 19.5517 21.6562 18.1765 21.6562C17.5091 21.6562 16.883 21.3964 16.4115 20.9258L16.2077 20.7221C14.9064 19.4207 13.1759 18.7031 11.3351 18.7031C11.2337 18.7031 11.1284 18.6893 11.022 18.6736C10.896 18.0456 10.8281 17.3978 10.8281 16.7344C10.8281 13.5204 12.3834 10.6706 14.7735 8.87217Z" fill="white"/>
<path d="M46.2656 4.92188H34.4531V6.89062H46.2656V4.92188Z" fill="white"/>
<path d="M36.4219 8.85938H34.4531V10.8281H36.4219V8.85938Z" fill="white"/>
<path d="M46.2656 8.85938H38.3906V10.8281H46.2656V8.85938Z" fill="white"/>
<path d="M46.2656 12.7969H34.4531V14.7656H46.2656V12.7969Z" fill="white"/>
<path d="M46.2656 16.7344H34.4531V18.7031H46.2656V16.7344Z" fill="white"/>
<path d="M42.3281 20.6719H34.4531V22.6406H42.3281V20.6719Z" fill="white"/>
<path d="M46.2656 20.6719H44.2969V22.6406H46.2656V20.6719Z" fill="white"/>
<path d="M16.7344 55.125H8.85938V57.0938H16.7344V55.125Z" fill="white"/>
<path d="M16.7344 51.1875H8.85938V53.1562H16.7344V51.1875Z" fill="white"/>
<path d="M16.7344 47.25H8.85938V49.2188H16.7344V47.25Z" fill="white"/>
<path d="M16.7344 43.3125H8.85938V45.2812H16.7344V43.3125Z" fill="white"/>
<path d="M16.7344 39.375H8.85938V41.3438H16.7344V39.375Z" fill="white"/>
</svg>
